<?xml version="1.0" encoding="UTF-8"?>
<svg xmlns="http://www.w3.org/2000/svg" xmlns:xlink="http://www.w3.org/1999/xlink" width="256pt" height="256pt" viewBox="0 0 256 256" version="1.1">
<g id="surface1">
<path style=" stroke:none;fill-rule:nonzero;fill:rgb(100%,20%,19.607843%);fill-opacity:1;" d="M 0 128 C 0 57.304688 57.304688 0 128 0 C 198.695312 0 256 57.316406 256 128 C 256 198.683594 198.691406 256 128 256 C 57.308594 256 0 198.695312 0 128 Z M 0 128 "/>
<path style=" stroke:none;fill-rule:nonzero;fill:rgb(100%,100%,100%);fill-opacity:1;" d="M 94.574219 165.046875 C 96.554688 163.359375 98.339844 161.453125 99.890625 159.363281 C 101.417969 157.292969 102.679688 155.035156 103.648438 152.648438 C 104.632812 150.234375 105.132812 147.652344 105.125 145.046875 C 105.125 143.367188 104.851562 141.695312 104.316406 140.105469 C 103.742188 138.421875 103.074219 136.769531 102.316406 135.160156 L 87.714844 135.160156 L 87.714844 122.609375 L 97.160156 122.609375 C 95.6875 120.738281 94.210938 117.984375 92.730469 114.34375 C 91.214844 110.492188 90.464844 106.382812 90.519531 102.246094 C 90.503906 98.375 91.335938 94.550781 92.949219 91.035156 C 94.628906 87.425781 97.070312 84.226562 100.109375 81.660156 C 103.261719 78.957031 107.199219 76.816406 111.914062 75.238281 C 116.632812 73.664062 122.09375 72.875 128.300781 72.878906 C 139.609375 72.878906 148.414062 76.027344 154.710938 82.324219 C 161.007812 88.621094 164.15625 97.773438 164.160156 109.773438 L 144.234375 109.773438 C 144.136719 108.300781 143.941406 106.457031 143.644531 104.246094 C 143.339844 102.007812 142.664062 99.835938 141.644531 97.820312 C 140.53125 95.667969 138.910156 93.820312 136.921875 92.433594 C 134.800781 90.910156 131.871094 90.148438 128.136719 90.144531 C 123.710938 90.144531 120.195312 91.375 117.585938 93.839844 C 114.976562 96.304688 113.671875 99.601562 113.679688 103.730469 C 113.679688 104.910156 113.726562 106.039062 113.820312 107.121094 C 113.949219 108.390625 114.175781 109.648438 114.488281 110.886719 C 114.929688 112.582031 115.523438 114.234375 116.261719 115.824219 C 117.097656 117.699219 118.25 119.960938 119.726562 122.613281 L 139.355469 122.613281 L 139.355469 135.160156 L 123.855469 135.160156 C 124.339844 136.597656 124.660156 138.082031 124.816406 139.589844 C 124.960938 141.066406 125.035156 142.644531 125.035156 144.316406 C 125.035156 148.941406 123.832031 152.898438 121.425781 156.191406 C 119.007812 159.492188 116.148438 162.445312 112.925781 164.96875 L 113.21875 165.269531 C 115.585938 163.769531 117.5 162.859375 118.976562 162.464844 C 120.371094 162.082031 121.8125 161.882812 123.261719 161.875 C 125.214844 161.867188 127.164062 162.035156 129.089844 162.375 C 131.007812 162.707031 132.949219 163.078125 134.921875 163.480469 C 136.886719 163.976562 138.804688 164.398438 140.671875 164.738281 C 142.570312 165.082031 144.496094 165.25 146.425781 165.238281 C 148.46875 165.230469 150.496094 164.882812 152.425781 164.210938 C 154.425781 163.523438 156.757812 161.75 159.425781 158.894531 L 168.28125 173.800781 C 165.078125 177.027344 161.199219 179.496094 156.921875 181.03125 C 153.171875 182.355469 149.234375 183.054688 145.261719 183.09375 C 142.144531 183.148438 139.03125 182.902344 135.964844 182.359375 C 133.667969 181.910156 131.398438 181.320312 129.175781 180.589844 C 127.003906 179.804688 124.84375 179.113281 122.675781 178.523438 C 120.023438 177.875 117.296875 177.574219 114.566406 177.636719 C 111.75 177.65625 108.945312 178.027344 106.21875 178.738281 C 103.082031 179.601562 100.148438 181.082031 97.589844 183.09375 L 88.433594 169.519531 C 90.59375 168.1875 92.644531 166.691406 94.574219 165.046875 Z M 94.574219 165.046875 "/>
</g>
</svg>
