<?xml version="1.0" encoding="UTF-8"?>
<svg xmlns="http://www.w3.org/2000/svg" xmlns:xlink="http://www.w3.org/1999/xlink" width="256pt" height="256pt" viewBox="0 0 256 256" version="1.1">
<g id="surface1">
<path style=" stroke:none;fill-rule:nonzero;fill:rgb(0%,71.372549%,92.156863%);fill-opacity:1;" d="M 0 128 C 0 57.304688 57.304688 0 128 0 C 198.695312 0 256 57.316406 256 128 C 256 198.683594 198.691406 256 128 256 C 57.308594 256 0 198.695312 0 128 Z M 0 128 "/>
<path style=" stroke:none;fill-rule:nonzero;fill:rgb(100%,100%,100%);fill-opacity:1;" d="M 142.460938 88.941406 C 131.027344 88.941406 123.402344 96.40625 119.589844 111.335938 L 159.449219 111.335938 L 154.390625 123.101562 L 117.785156 123.101562 L 117.621094 129.960938 L 152.429688 129.960938 L 147.359375 141.726562 L 118.929688 141.726562 C 122.421875 158.945312 130.480469 167.550781 143.113281 167.546875 C 151.285156 167.546875 159.671875 164.113281 168.28125 157.25 L 168.113281 181.929688 C 160.816406 186.179688 152.425781 188.304688 142.949219 188.300781 C 129.226562 188.300781 118.171875 183.890625 109.78125 175.070312 C 102.148438 167.121094 97.191406 156.007812 94.90625 141.730469 L 82.320312 141.730469 L 87.390625 129.964844 L 93.925781 129.964844 L 93.925781 125.71875 C 93.925781 124.195312 93.980469 123.324219 94.089844 123.105469 L 82.160156 123.105469 L 87.230469 111.339844 L 95.558594 111.339844 C 98.175781 98.15625 103.566406 87.75 111.734375 80.125 C 120.339844 71.847656 131.128906 67.710938 144.09375 67.710938 C 153.25 67.710938 163.164062 70.433594 173.839844 75.878906 L 163.871094 96.300781 C 156.242188 91.398438 149.105469 88.941406 142.460938 88.941406 Z M 142.460938 88.941406 "/>
</g>
</svg>
