<?xml version="1.0" encoding="UTF-8"?>
<svg xmlns="http://www.w3.org/2000/svg" xmlns:xlink="http://www.w3.org/1999/xlink" width="256pt" height="256pt" viewBox="0 0 256 256" version="1.1">
<g id="surface1">
<path style=" stroke:none;fill-rule:nonzero;fill:rgb(16.862745%,46.666667%,75.686275%);fill-opacity:1;" d="M 0 128 C 0 57.304688 57.304688 0 128 0 C 198.695312 0 256 57.316406 256 128 C 256 198.683594 198.691406 256 128 256 C 57.308594 256 0 198.695312 0 128 Z M 0 128 "/>
<path style=" stroke:none;fill-rule:nonzero;fill:rgb(100%,100%,100%);fill-opacity:1;" d="M 112.136719 159.214844 C 115.160156 162.449219 119.144531 164.621094 123.5 165.414062 L 123.5 134.566406 C 123 134.371094 122.339844 134.144531 121.5 133.898438 C 120.660156 133.65625 119.753906 133.433594 118.769531 133.234375 C 115.125 132.234375 111.535156 131.078125 107.996094 129.765625 C 104.570312 128.5 101.367188 126.707031 98.496094 124.453125 C 95.679688 122.226562 93.386719 119.402344 91.78125 116.191406 C 90.113281 112.890625 89.28125 108.78125 89.28125 103.859375 C 89.28125 98.859375 90.238281 94.433594 92.15625 90.574219 C 93.980469 86.855469 96.570312 83.5625 99.753906 80.910156 C 103 78.25 106.699219 76.203125 110.675781 74.859375 C 114.816406 73.4375 119.128906 72.574219 123.5 72.289062 L 123.5 60.925781 L 132.203125 60.925781 L 132.203125 72.289062 C 136.464844 72.742188 140.652344 73.707031 144.679688 75.164062 C 148.421875 76.511719 151.890625 78.511719 154.933594 81.070312 C 157.957031 83.667969 160.417969 86.859375 162.164062 90.445312 C 164.03125 94.183594 165.113281 98.609375 165.414062 103.730469 L 144.460938 103.730469 C 144.453125 100.050781 143.144531 96.496094 140.765625 93.691406 C 138.40625 90.941406 135.550781 89.5625 132.203125 89.554688 L 132.203125 115.679688 C 133.386719 115.972656 134.589844 116.269531 135.820312 116.566406 C 137.054688 116.859375 138.351562 117.210938 139.734375 117.605469 C 147.015625 119.570312 152.625 122.007812 156.558594 124.910156 C 160.496094 127.8125 163.398438 130.84375 165.265625 134 C 167.039062 136.875 168.171875 140.097656 168.585938 143.449219 C 168.902344 146.242188 169.070312 149.050781 169.085938 151.859375 C 169.085938 154.023438 168.546875 156.753906 167.464844 160.050781 C 166.386719 163.347656 164.445312 166.5625 161.648438 169.695312 C 158.847656 172.839844 155.082031 175.644531 150.359375 178.105469 C 145.636719 180.566406 139.585938 182.039062 132.210938 182.53125 L 132.210938 195.074219 L 123.5 195.074219 L 123.5 182.53125 C 112.480469 181.742188 103.871094 178.351562 97.675781 172.351562 C 91.476562 166.351562 87.886719 157.546875 86.898438 145.933594 L 107.710938 145.933594 C 107.609375 151.542969 109.085938 155.96875 112.136719 159.214844 Z M 118.636719 90.300781 C 117.074219 90.78125 115.625 91.558594 114.355469 92.585938 C 113.082031 93.625 112.058594 94.933594 111.355469 96.421875 C 110.582031 98.109375 110.203125 99.957031 110.25 101.816406 C 110.25 105.058594 111.28125 107.558594 113.34375 109.316406 C 115.410156 111.070312 118.792969 112.503906 123.5 113.609375 L 123.5 89.554688 C 121.847656 89.554688 120.207031 89.804688 118.628906 90.300781 Z M 137.75 164.164062 C 139.613281 163.550781 141.355469 162.625 142.910156 161.429688 C 144.441406 160.246094 145.722656 158.765625 146.675781 157.078125 C 147.695312 155.203125 148.207031 153.089844 148.148438 150.953125 C 148.148438 147.113281 146.945312 144.238281 144.539062 142.320312 C 142.132812 140.402344 138.023438 138.660156 132.214844 137.085938 L 132.214844 165.421875 C 134.097656 165.195312 135.949219 164.773438 137.746094 164.160156 Z M 137.75 164.164062 "/>
</g>
</svg>
