<?xml version="1.0" encoding="UTF-8"?>
<svg xmlns="http://www.w3.org/2000/svg" xmlns:xlink="http://www.w3.org/1999/xlink" width="256pt" height="256pt" viewBox="0 0 256 256" version="1.1">
<g id="surface1">
<path style=" stroke:none;fill-rule:nonzero;fill:rgb(0%,66.27451%,23.529412%);fill-opacity:1;" d="M 0 128 C 0 57.304688 57.304688 0 128 0 C 198.695312 0 256 57.316406 256 128 C 256 198.683594 198.691406 256 128 256 C 57.308594 256 0 198.695312 0 128 Z M 0 128 "/>
<path style=" stroke:none;fill-rule:nonzero;fill:rgb(100%,100%,100%);fill-opacity:1;" d="M 115.75 162.59375 L 90.949219 162.59375 L 90.949219 147.59375 L 115.75 147.59375 L 115.75 140.324219 L 113.539062 135.738281 L 90.949219 135.738281 L 90.949219 120.738281 L 105.949219 120.738281 L 81.789062 71.601562 L 107.378906 71.601562 L 128.234375 120.730469 L 148.613281 71.601562 L 174.210938 71.601562 L 149.710938 120.730469 L 164.710938 120.730469 L 164.710938 135.730469 L 142.136719 135.730469 L 139.765625 140.316406 L 139.765625 147.578125 L 164.726562 147.578125 L 164.726562 162.578125 L 139.765625 162.578125 L 139.765625 184.378906 L 115.765625 184.378906 Z M 115.75 162.59375 "/>
</g>
</svg>
